<?xml version="1.0" encoding="UTF-8" standalone="no"?>
<!DOCTYPE svg PUBLIC "-//W3C//DTD SVG 1.1//EN"
 "http://www.w3.org/Graphics/SVG/1.1/DTD/svg11.dtd">
<!-- Generated by graphviz version 13.1.0 (20250701.0955)
 -->
<!-- Title: src/driver_sen5x.c Pages: 1 -->
<svg width="250pt" height="140pt"
 viewBox="0.00 0.00 250.00 140.00" xmlns="http://www.w3.org/2000/svg" xmlns:xlink="http://www.w3.org/1999/xlink">
<g id="graph0" class="graph" transform="scale(1 1) rotate(0) translate(4 136)">
<title>src/driver_sen5x.c</title>
<!-- Node1 -->
<g id="Node000001" class="node">
<title>Node1</title>
<g id="a_Node000001"><a xlink:title="driver sen5x source file">
<polygon fill="#999999" stroke="#666666" points="168.75,-132 72.5,-132 72.5,-112 168.75,-112 168.75,-132"/>
<text xml:space="preserve" text-anchor="middle" x="120.62" y="-118.5" font-family="Helvetica,sans-Serif" font-size="10.00">src/driver_sen5x.c</text>
</a>
</g>
</g>
<!-- Node2 -->
<g id="Node000002" class="node">
<title>Node2</title>
<g id="a_Node000002"><a xlink:href="driver__sen5x_8h.html" target="_top" xlink:title="driver sen5x header file">
<polygon fill="white" stroke="#666666" points="160.5,-76 80.75,-76 80.75,-56 160.5,-56 160.5,-76"/>
<text xml:space="preserve" text-anchor="middle" x="120.62" y="-62.5" font-family="Helvetica,sans-Serif" font-size="10.00">driver_sen5x.h</text>
</a>
</g>
</g>
<!-- Node1&#45;&gt;Node2 -->
<g id="edge1_Node000001_Node000002" class="edge">
<title>Node1&#45;&gt;Node2</title>
<g id="a_edge1_Node000001_Node000002"><a xlink:title=" ">
<path fill="none" stroke="#63b8ff" d="M120.62,-111.59C120.62,-105.01 120.62,-95.96 120.62,-87.73"/>
<polygon fill="#63b8ff" stroke="#63b8ff" points="124.13,-87.81 120.63,-77.81 117.13,-87.81 124.13,-87.81"/>
</a>
</g>
</g>
<!-- Node3 -->
<g id="Node000003" class="node">
<title>Node3</title>
<g id="a_Node000003"><a xlink:title=" ">
<polygon fill="#e0e0e0" stroke="#999999" points="45.25,-20 0,-20 0,0 45.25,0 45.25,-20"/>
<text xml:space="preserve" text-anchor="middle" x="22.62" y="-6.5" font-family="Helvetica,sans-Serif" font-size="10.00">stdio.h</text>
</a>
</g>
</g>
<!-- Node2&#45;&gt;Node3 -->
<g id="edge2_Node000002_Node000003" class="edge">
<title>Node2&#45;&gt;Node3</title>
<g id="a_edge2_Node000002_Node000003"><a xlink:title=" ">
<path fill="none" stroke="#63b8ff" d="M103.55,-55.59C88.75,-47.44 67.06,-35.48 49.86,-26"/>
<polygon fill="#63b8ff" stroke="#63b8ff" points="51.6,-22.97 41.15,-21.21 48.22,-29.1 51.6,-22.97"/>
</a>
</g>
</g>
<!-- Node4 -->
<g id="Node000004" class="node">
<title>Node4</title>
<g id="a_Node000004"><a xlink:title=" ">
<polygon fill="#e0e0e0" stroke="#999999" points="111.75,-20 63.5,-20 63.5,0 111.75,0 111.75,-20"/>
<text xml:space="preserve" text-anchor="middle" x="87.62" y="-6.5" font-family="Helvetica,sans-Serif" font-size="10.00">stdint.h</text>
</a>
</g>
</g>
<!-- Node2&#45;&gt;Node4 -->
<g id="edge3_Node000002_Node000004" class="edge">
<title>Node2&#45;&gt;Node4</title>
<g id="a_edge3_Node000002_Node000004"><a xlink:title=" ">
<path fill="none" stroke="#63b8ff" d="M114.88,-55.59C110.57,-48.55 104.53,-38.67 99.24,-30"/>
<polygon fill="#63b8ff" stroke="#63b8ff" points="102.3,-28.3 94.1,-21.59 96.32,-31.95 102.3,-28.3"/>
</a>
</g>
</g>
<!-- Node5 -->
<g id="Node000005" class="node">
<title>Node5</title>
<g id="a_Node000005"><a xlink:title=" ">
<polygon fill="#e0e0e0" stroke="#999999" points="177.75,-20 129.5,-20 129.5,0 177.75,0 177.75,-20"/>
<text xml:space="preserve" text-anchor="middle" x="153.62" y="-6.5" font-family="Helvetica,sans-Serif" font-size="10.00">string.h</text>
</a>
</g>
</g>
<!-- Node2&#45;&gt;Node5 -->
<g id="edge4_Node000002_Node000005" class="edge">
<title>Node2&#45;&gt;Node5</title>
<g id="a_edge4_Node000002_Node000005"><a xlink:title=" ">
<path fill="none" stroke="#63b8ff" d="M126.37,-55.59C130.68,-48.55 136.72,-38.67 142.01,-30"/>
<polygon fill="#63b8ff" stroke="#63b8ff" points="144.93,-31.95 147.15,-21.59 138.95,-28.3 144.93,-31.95"/>
</a>
</g>
</g>
<!-- Node6 -->
<g id="Node000006" class="node">
<title>Node6</title>
<g id="a_Node000006"><a xlink:title=" ">
<polygon fill="#e0e0e0" stroke="#999999" points="241.62,-20 195.62,-20 195.62,0 241.62,0 241.62,-20"/>
<text xml:space="preserve" text-anchor="middle" x="218.62" y="-6.5" font-family="Helvetica,sans-Serif" font-size="10.00">math.h</text>
</a>
</g>
</g>
<!-- Node2&#45;&gt;Node6 -->
<g id="edge5_Node000002_Node000006" class="edge">
<title>Node2&#45;&gt;Node6</title>
<g id="a_edge5_Node000002_Node000006"><a xlink:title=" ">
<path fill="none" stroke="#63b8ff" d="M137.7,-55.59C152.5,-47.44 174.19,-35.48 191.39,-26"/>
<polygon fill="#63b8ff" stroke="#63b8ff" points="193.03,-29.1 200.1,-21.21 189.65,-22.97 193.03,-29.1"/>
</a>
</g>
</g>
</g>
</svg>
