<?xml version="1.0" encoding="UTF-8" standalone="no"?>
<!DOCTYPE svg PUBLIC "-//W3C//DTD SVG 1.1//EN"
 "http://www.w3.org/Graphics/SVG/1.1/DTD/svg11.dtd">
<!-- Generated by graphviz version 13.1.0 (20250701.0955)
 -->
<!-- Title: sen5x_basic_init Pages: 1 -->
<svg width="265pt" height="468pt"
 viewBox="0.00 0.00 265.00 468.00" xmlns="http://www.w3.org/2000/svg" xmlns:xlink="http://www.w3.org/1999/xlink">
<g id="graph0" class="graph" transform="scale(1 1) rotate(0) translate(4 464)">
<title>sen5x_basic_init</title>
<!-- Node1 -->
<g id="Node000001" class="node">
<title>Node1</title>
<g id="a_Node000001"><a xlink:title="basic example init">
<polygon fill="#999999" stroke="#666666" points="88.75,-246 0,-246 0,-226 88.75,-226 88.75,-246"/>
<text xml:space="preserve" text-anchor="middle" x="44.38" y="-232.5" font-family="Helvetica,sans-Serif" font-size="10.00">sen5x_basic_init</text>
</a>
</g>
</g>
<!-- Node2 -->
<g id="Node000002" class="node">
<title>Node2</title>
<g id="a_Node000002"><a xlink:href="group__sen5x__basic__driver.html#ga8ba916666736a1db356db41b304fbd9b" target="_top" xlink:title="close the chip">
<polygon fill="white" stroke="#666666" points="226.25,-460 155.5,-460 155.5,-440 226.25,-440 226.25,-460"/>
<text xml:space="preserve" text-anchor="middle" x="190.88" y="-446.5" font-family="Helvetica,sans-Serif" font-size="10.00">sen5x_deinit</text>
</a>
</g>
</g>
<!-- Node1&#45;&gt;Node2 -->
<g id="edge1_Node000001_Node000002" class="edge">
<title>Node1&#45;&gt;Node2</title>
<g id="a_edge1_Node000001_Node000002"><a xlink:title=" ">
<path fill="none" stroke="#63b8ff" d="M46.45,-246.24C50.38,-278.49 66.95,-378.85 124.75,-431 130.32,-436.03 137.16,-439.73 144.29,-442.46"/>
<polygon fill="#63b8ff" stroke="#63b8ff" points="143.16,-445.77 153.75,-445.43 145.26,-439.09 143.16,-445.77"/>
</a>
</g>
</g>
<!-- Node3 -->
<g id="Node000003" class="node">
<title>Node3</title>
<g id="a_Node000003"><a xlink:href="group__sen5x__basic__driver.html#gae6020163241dfd484a59c971c439462b" target="_top" xlink:title="initialize the chip">
<polygon fill="white" stroke="#666666" points="221,-422 160.75,-422 160.75,-402 221,-402 221,-422"/>
<text xml:space="preserve" text-anchor="middle" x="190.88" y="-408.5" font-family="Helvetica,sans-Serif" font-size="10.00">sen5x_init</text>
</a>
</g>
</g>
<!-- Node1&#45;&gt;Node3 -->
<g id="edge2_Node000001_Node000003" class="edge">
<title>Node1&#45;&gt;Node3</title>
<g id="a_edge2_Node000001_Node000003"><a xlink:title=" ">
<path fill="none" stroke="#63b8ff" d="M47.55,-246.21C54.03,-274.13 75.89,-352.4 124.75,-393 131.82,-398.87 140.63,-402.93 149.47,-405.74"/>
<polygon fill="#63b8ff" stroke="#63b8ff" points="148.52,-409.11 159.08,-408.27 150.3,-402.34 148.52,-409.11"/>
</a>
</g>
</g>
<!-- Node4 -->
<g id="Node000004" class="node">
<title>Node4</title>
<g id="a_Node000004"><a xlink:href="group__sen5x__interface__driver.html#gae3aae2d50e1ce369f530e9332ed5e6dd" target="_top" xlink:title="interface print format data">
<polygon fill="white" stroke="#666666" points="249.12,-384 132.62,-384 132.62,-352 249.12,-352 249.12,-384"/>
<text xml:space="preserve" text-anchor="start" x="140.62" y="-370.5" font-family="Helvetica,sans-Serif" font-size="10.00">sen5x_interface_debug</text>
<text xml:space="preserve" text-anchor="middle" x="190.88" y="-358.5" font-family="Helvetica,sans-Serif" font-size="10.00">_print</text>
</a>
</g>
</g>
<!-- Node1&#45;&gt;Node4 -->
<g id="edge3_Node000001_Node000004" class="edge">
<title>Node1&#45;&gt;Node4</title>
<g id="a_edge3_Node000001_Node000004"><a xlink:title=" ">
<path fill="none" stroke="#63b8ff" d="M50.46,-246.36C61.3,-267.43 88.65,-315.58 124.75,-343 126.08,-344.01 127.45,-344.98 128.86,-345.91"/>
<polygon fill="#63b8ff" stroke="#63b8ff" points="126.88,-348.81 137.28,-350.83 130.41,-342.77 126.88,-348.81"/>
</a>
</g>
</g>
<!-- Node5 -->
<g id="Node000005" class="node">
<title>Node5</title>
<g id="a_Node000005"><a xlink:href="group__sen5x__interface__driver.html#ga6ad85d6a464e738c301208a7be5afbb0" target="_top" xlink:title="interface delay ms">
<polygon fill="white" stroke="#666666" points="257,-334 124.75,-334 124.75,-314 257,-314 257,-334"/>
<text xml:space="preserve" text-anchor="middle" x="190.88" y="-320.5" font-family="Helvetica,sans-Serif" font-size="10.00">sen5x_interface_delay_ms</text>
</a>
</g>
</g>
<!-- Node1&#45;&gt;Node5 -->
<g id="edge4_Node000001_Node000005" class="edge">
<title>Node1&#45;&gt;Node5</title>
<g id="a_edge4_Node000001_Node000005"><a xlink:title=" ">
<path fill="none" stroke="#63b8ff" d="M54.58,-246.47C68.38,-261.54 95.9,-289.25 124.75,-305 127.75,-306.64 130.92,-308.15 134.16,-309.55"/>
<polygon fill="#63b8ff" stroke="#63b8ff" points="132.71,-312.74 143.3,-313.05 135.22,-306.2 132.71,-312.74"/>
</a>
</g>
</g>
<!-- Node6 -->
<g id="Node000006" class="node">
<title>Node6</title>
<g id="a_Node000006"><a xlink:href="group__sen5x__interface__driver.html#ga4ecd134783948fd790ad15c1a44712d0" target="_top" xlink:title="interface iic bus deinit">
<polygon fill="white" stroke="#666666" points="240.88,-296 140.88,-296 140.88,-264 240.88,-264 240.88,-296"/>
<text xml:space="preserve" text-anchor="start" x="148.88" y="-282.5" font-family="Helvetica,sans-Serif" font-size="10.00">sen5x_interface_iic</text>
<text xml:space="preserve" text-anchor="middle" x="190.88" y="-270.5" font-family="Helvetica,sans-Serif" font-size="10.00">_deinit</text>
</a>
</g>
</g>
<!-- Node1&#45;&gt;Node6 -->
<g id="edge5_Node000001_Node000006" class="edge">
<title>Node1&#45;&gt;Node6</title>
<g id="a_edge5_Node000001_Node000006"><a xlink:title=" ">
<path fill="none" stroke="#63b8ff" d="M79.62,-246.43C94.69,-251.02 112.84,-256.54 130.02,-261.77"/>
<polygon fill="#63b8ff" stroke="#63b8ff" points="128.53,-264.98 139.11,-264.54 130.57,-258.28 128.53,-264.98"/>
</a>
</g>
</g>
<!-- Node7 -->
<g id="Node000007" class="node">
<title>Node7</title>
<g id="a_Node000007"><a xlink:href="group__sen5x__interface__driver.html#ga3136b86ac33704e26a236a6b4f6bca15" target="_top" xlink:title="interface iic bus init">
<polygon fill="white" stroke="#666666" points="249.88,-246 131.88,-246 131.88,-226 249.88,-226 249.88,-246"/>
<text xml:space="preserve" text-anchor="middle" x="190.88" y="-232.5" font-family="Helvetica,sans-Serif" font-size="10.00">sen5x_interface_iic_init</text>
</a>
</g>
</g>
<!-- Node1&#45;&gt;Node7 -->
<g id="edge6_Node000001_Node000007" class="edge">
<title>Node1&#45;&gt;Node7</title>
<g id="a_edge6_Node000001_Node000007"><a xlink:title=" ">
<path fill="none" stroke="#63b8ff" d="M89.12,-236C98.94,-236 109.6,-236 120.19,-236"/>
<polygon fill="#63b8ff" stroke="#63b8ff" points="120.09,-239.5 130.09,-236 120.09,-232.5 120.09,-239.5"/>
</a>
</g>
</g>
<!-- Node8 -->
<g id="Node000008" class="node">
<title>Node8</title>
<g id="a_Node000008"><a xlink:href="group__sen5x__interface__driver.html#ga10abd035422608aba7b665775b3d1bbe" target="_top" xlink:title="interface iic bus read">
<polygon fill="white" stroke="#666666" points="240.88,-208 140.88,-208 140.88,-176 240.88,-176 240.88,-208"/>
<text xml:space="preserve" text-anchor="start" x="148.88" y="-194.5" font-family="Helvetica,sans-Serif" font-size="10.00">sen5x_interface_iic</text>
<text xml:space="preserve" text-anchor="middle" x="190.88" y="-182.5" font-family="Helvetica,sans-Serif" font-size="10.00">_read_cmd</text>
</a>
</g>
</g>
<!-- Node1&#45;&gt;Node8 -->
<g id="edge7_Node000001_Node000008" class="edge">
<title>Node1&#45;&gt;Node8</title>
<g id="a_edge7_Node000001_Node000008"><a xlink:title=" ">
<path fill="none" stroke="#63b8ff" d="M79.62,-225.57C94.69,-220.98 112.84,-215.46 130.02,-210.23"/>
<polygon fill="#63b8ff" stroke="#63b8ff" points="130.57,-213.72 139.11,-207.46 128.53,-207.02 130.57,-213.72"/>
</a>
</g>
</g>
<!-- Node9 -->
<g id="Node000009" class="node">
<title>Node9</title>
<g id="a_Node000009"><a xlink:href="group__sen5x__interface__driver.html#ga0aa4a789a00874dd1f48a1dae79c19d8" target="_top" xlink:title="interface iic bus write">
<polygon fill="white" stroke="#666666" points="240.88,-158 140.88,-158 140.88,-126 240.88,-126 240.88,-158"/>
<text xml:space="preserve" text-anchor="start" x="148.88" y="-144.5" font-family="Helvetica,sans-Serif" font-size="10.00">sen5x_interface_iic</text>
<text xml:space="preserve" text-anchor="middle" x="190.88" y="-132.5" font-family="Helvetica,sans-Serif" font-size="10.00">_write_cmd</text>
</a>
</g>
</g>
<!-- Node1&#45;&gt;Node9 -->
<g id="edge8_Node000001_Node000009" class="edge">
<title>Node1&#45;&gt;Node9</title>
<g id="a_edge8_Node000001_Node000009"><a xlink:title=" ">
<path fill="none" stroke="#63b8ff" d="M54.76,-225.84C68.78,-211.16 96.58,-183.93 124.75,-167 126.78,-165.78 128.87,-164.6 131.02,-163.47"/>
<polygon fill="#63b8ff" stroke="#63b8ff" points="132.5,-166.64 139.95,-159.12 129.43,-160.35 132.5,-166.64"/>
</a>
</g>
</g>
<!-- Node10 -->
<g id="Node000010" class="node">
<title>Node10</title>
<g id="a_Node000010"><a xlink:href="group__sen5x__basic__driver.html#gaf790bc95f8e0ca44f619721c6f5c4b11" target="_top" xlink:title="set the auto cleaning interval">
<polygon fill="white" stroke="#666666" points="254,-108 127.75,-108 127.75,-76 254,-76 254,-108"/>
<text xml:space="preserve" text-anchor="start" x="135.75" y="-94.5" font-family="Helvetica,sans-Serif" font-size="10.00">sen5x_set_auto_cleaning</text>
<text xml:space="preserve" text-anchor="middle" x="190.88" y="-82.5" font-family="Helvetica,sans-Serif" font-size="10.00">_interval</text>
</a>
</g>
</g>
<!-- Node1&#45;&gt;Node10 -->
<g id="edge9_Node000001_Node000010" class="edge">
<title>Node1&#45;&gt;Node10</title>
<g id="a_edge9_Node000001_Node000010"><a xlink:title=" ">
<path fill="none" stroke="#63b8ff" d="M49.69,-225.52C59.6,-202.65 86.15,-147.86 124.75,-117 125.89,-116.09 127.08,-115.2 128.29,-114.35"/>
<polygon fill="#63b8ff" stroke="#63b8ff" points="130.09,-117.35 136.8,-109.15 126.44,-111.37 130.09,-117.35"/>
</a>
</g>
</g>
<!-- Node11 -->
<g id="Node000011" class="node">
<title>Node11</title>
<g id="a_Node000011"><a xlink:href="group__sen5x__basic__driver.html#ga49dccd0dd63252dcd9718ba704f03146" target="_top" xlink:title="set the chip type">
<polygon fill="white" stroke="#666666" points="233.38,-58 148.38,-58 148.38,-38 233.38,-38 233.38,-58"/>
<text xml:space="preserve" text-anchor="middle" x="190.88" y="-44.5" font-family="Helvetica,sans-Serif" font-size="10.00">sen5x_set_type</text>
</a>
</g>
</g>
<!-- Node1&#45;&gt;Node11 -->
<g id="edge10_Node000001_Node000011" class="edge">
<title>Node1&#45;&gt;Node11</title>
<g id="a_edge10_Node000001_Node000011"><a xlink:title=" ">
<path fill="none" stroke="#63b8ff" d="M47.13,-225.88C52.75,-196.63 73.03,-111.26 124.75,-67 128.58,-63.72 132.95,-61.01 137.57,-58.77"/>
<polygon fill="#63b8ff" stroke="#63b8ff" points="138.61,-62.12 146.57,-55.13 135.98,-55.63 138.61,-62.12"/>
</a>
</g>
</g>
<!-- Node12 -->
<g id="Node000012" class="node">
<title>Node12</title>
<g id="a_Node000012"><a xlink:href="group__sen5x__basic__driver.html#ga68120700eb917e15241e5f5116db29e0" target="_top" xlink:title="start the measurement">
<polygon fill="white" stroke="#666666" points="256.62,-20 125.12,-20 125.12,0 256.62,0 256.62,-20"/>
<text xml:space="preserve" text-anchor="middle" x="190.88" y="-6.5" font-family="Helvetica,sans-Serif" font-size="10.00">sen5x_start_measurement</text>
</a>
</g>
</g>
<!-- Node1&#45;&gt;Node12 -->
<g id="edge11_Node000001_Node000012" class="edge">
<title>Node1&#45;&gt;Node12</title>
<g id="a_edge11_Node000001_Node000012"><a xlink:title=" ">
<path fill="none" stroke="#63b8ff" d="M46.19,-225.62C49.4,-191.96 64.16,-84.8 124.75,-29 125.68,-28.14 126.65,-27.32 127.65,-26.54"/>
<polygon fill="#63b8ff" stroke="#63b8ff" points="129.48,-29.52 136.1,-21.25 125.77,-23.59 129.48,-29.52"/>
</a>
</g>
</g>
</g>
</svg>
